<mxfile host="app.diagrams.net" modified="2024-07-21T19:38:40.466Z" agent="Mozilla/5.0 (Macintosh; Intel Mac OS X 10_15_7) AppleWebKit/537.36 (KHTML, like Gecko) Chrome/126.0.0.0 Safari/537.36" version="24.7.1" etag="57k91MaB0LycKY9SHf-M" type="github">
  <diagram name="Page-1" id="0TeU7zby46gxcAlsPZRk">
    <mxGraphModel>
      <root>
        <mxCell id="0" />
        <mxCell id="1" parent="0" />
      </root>
    </mxGraphModel>
  </diagram>
</mxfile>
